<svg xmlns="http://www.w3.org/2000/svg" id="Layer_1" data-name="Layer 1" viewBox="0 0 24 24" width="512" height="512"><path d="m12,0C6.486,0,2,4.432,2,9.88c0,5.184,4.58,10.39,7.311,13.033.754.729,1.722,1.094,2.689,1.094s1.936-.365,2.689-1.094c2.73-2.643,7.311-7.849,7.311-13.033C22,4.432,17.514,0,12,0Zm1.299,21.475c-.729.704-1.869.704-2.598,0-2.502-2.422-6.701-7.149-6.701-11.595,0-4.345,3.589-7.88,8-7.88s8,3.535,8,7.88c0,4.446-4.199,9.173-6.701,11.595Zm4.699-12.362c-.054.905-.27,2.152-1.002,2.883-.732.732-1.978.948-2.883,1.002-.628.037-1.148-.482-1.111-1.111.054-.905.27-2.152,1.002-2.883.732-.732,1.978-.948,2.883-1.002.628-.037,1.148.482,1.111,1.111Zm-7,2.775c.037.628-.482,1.148-1.111,1.111-.905-.054-2.152-.27-2.883-1.002-.732-.732-.948-1.978-1.002-2.883-.037-.628.482-1.148,1.111-1.111.905.054,2.152.27,2.883,1.002.732.732.948,1.978,1.002,2.883Z"/></svg>